<svg width="19" height="20" viewBox="0 0 19 20" fill="none" xmlns="http://www.w3.org/2000/svg">
<path opacity="0.987" fill-rule="evenodd" clip-rule="evenodd" d="M8.19396 0.0835313C9.19083 -0.0278438 9.78071 -0.0278438 10.8518 0.0835313C12.7479 0.364162 14.5055 1.24057 15.8706 2.58603C14.9481 3.45797 14.0378 4.34264 13.1398 5.23978C11.4202 3.78228 9.50067 3.44586 7.38133 4.23053C5.82667 4.94553 4.74408 6.1042 4.13358 7.70653C3.13594 6.9638 2.15129 6.20377 1.18008 5.42678C1.11259 5.39125 1.0355 5.37825 0.960083 5.38966C2.50283 2.41507 4.91367 0.645906 8.19258 0.0821562" fill="#F44336"/>
<path opacity="0.997" fill-rule="evenodd" clip-rule="evenodd" d="M0.957347 5.39025C1.03526 5.37833 1.10906 5.39071 1.17872 5.42737C2.14993 6.20436 3.13458 6.96439 4.13222 7.70712C3.97523 8.33145 3.87627 8.96896 3.8366 9.6115C3.87051 10.233 3.96905 10.843 4.13222 11.4416L1.0316 13.9097C-0.318653 11.0882 -0.343403 8.24842 0.957347 5.39025Z" fill="#FFC107"/>
<path opacity="0.999" fill-rule="evenodd" clip-rule="evenodd" d="M15.7232 16.8984C14.7578 16.047 13.7471 15.2483 12.6955 14.5059C13.7496 13.7616 14.3895 12.7404 14.615 11.4424H9.4491V7.85502C12.4283 7.83027 15.4061 7.85548 18.3825 7.93065C18.9471 10.9969 18.2949 13.7616 16.4258 16.2246C16.2036 16.4609 15.9682 16.6858 15.7232 16.8984Z" fill="#448AFF"/>
<path opacity="0.993" fill-rule="evenodd" clip-rule="evenodd" d="M4.13188 11.4418C5.25938 14.244 7.32646 15.5521 10.3331 15.366C11.1771 15.2683 11.9864 14.9735 12.6954 14.5053C13.7477 15.2496 14.757 16.0471 15.7231 16.8978C14.1923 18.2734 12.2404 19.0896 10.186 19.2133C9.71924 19.2506 9.25026 19.2506 8.7835 19.2133C5.28367 18.8008 2.69958 17.0325 1.03125 13.9085L4.13188 11.4418Z" fill="#43A047"/>
</svg>
